<svg xmlns="http://www.w3.org/2000/svg" viewBox="0 0 100 100">
  <circle cx="50" cy="50" r="48" fill="#4f46e5" />
  <circle cx="50" cy="50" r="45" fill="#f8fafc" />
  <defs>
    <linearGradient id="suit" x1="0%" y1="0%" x2="100%" y2="100%">
      <stop offset="0%" style="stop-color:#334155;stop-opacity:1" />
      <stop offset="100%" style="stop-color:#1e293b;stop-opacity:1" />
    </linearGradient>
  </defs>
  <!-- Body/Suit -->
  <path d="M20,90 Q50,110 80,90 L80,75 Q50,60 20,75 Z" fill="url(#suit)" />
  <!-- Shirt -->
  <path d="M40,75 L50,85 L60,75 L50,65 Z" fill="#ffffff" />
  <!-- Head -->
  <circle cx="50" cy="45" r="20" fill="#fca5a5" />
  <!-- Hair -->
  <path d="M30,40 Q50,20 70,40 Q75,30 60,20 Q50,15 40,20 Q25,30 30,40" fill="#1e293b" />
  <!-- Crown -->
  <path d="M35,15 L42,25 L50,10 L58,25 L65,15 L65,28 L35,28 Z" fill="#fbbf24" stroke="#d97706" stroke-width="1" />
</svg>
