<svg xmlns="http://www.w3.org/2000/svg" viewBox="0 0 100 100">
  <circle cx="50" cy="50" r="48" fill="#f3e8ff" />
  <!-- Body (Plaid Shirt) -->
  <path d="M20,95 Q50,110 80,95 L80,75 Q50,65 20,75 Z" fill="#9333ea" />
  <line x1="30" y1="75" x2="30" y2="95" stroke="#7e22ce" stroke-width="1" />
  <line x1="40" y1="75" x2="40" y2="95" stroke="#7e22ce" stroke-width="1" />
  <line x1="50" y1="75" x2="50" y2="95" stroke="#7e22ce" stroke-width="1" />
  <line x1="60" y1="75" x2="60" y2="95" stroke="#7e22ce" stroke-width="1" />
  
  <!-- Head -->
  <circle cx="50" cy="50" r="22" fill="#e5c29f" />
  <!-- Beard -->
  <path d="M30,50 Q30,75 50,75 Q70,75 70,50 L70,45 L30,45 Z" fill="#4b5563" />
  <!-- Glasses -->
  <g stroke="#000" stroke-width="2" fill="none">
      <rect x="35" y="45" width="12" height="8" rx="2" />
      <rect x="53" y="45" width="12" height="8" rx="2" />
      <line x1="47" y1="49" x2="53" y2="49" />
  </g>
</svg>
